<svg xmlns="http://www.w3.org/2000/svg" viewBox="0 0 512 512"><defs><linearGradient id="a" x1="-50.355" x2="571.271" y1="179.606" y2="334.448" gradientUnits="userSpaceOnUse"><stop offset="0" stop-color="#40bae6"/><stop offset=".165" stop-color="#6174f2"/><stop offset=".517" stop-color="#924cf5"/><stop offset=".777" stop-color="#af4af7"/><stop offset="1" stop-color="#8424f2"/></linearGradient></defs><path fill="url(#a)" d="m89.234 255.821 95.126 95.125c7.948 7.948 11.862 16.649 11.743 26.102-.12 9.453-4.154 18.034-12.101 25.743-7.71 7.948-16.231 11.862-25.565 11.743-9.333-.12-18.045-4.105-26.136-11.957L11.014 281.647c-3.51-3.571-6.223-7.579-8.139-12.023C.958 265.178 0 260.654 0 256.052c0-4.84.958-9.484 2.875-13.928 1.917-4.445 4.63-8.369 8.139-11.771l121.501-121.502c7.147-7.287 15.693-10.93 25.638-10.93 9.945 0 18.562 3.643 25.849 10.93 7.525 7.287 11.288 15.963 11.288 26.028s-3.763 18.67-11.288 25.817L89.234 255.82Zm334.44-.192-95.759-95.759c-7.525-7.526-11.182-16.015-10.971-25.468.21-9.453 4.079-17.942 11.605-25.468 7.764-7.764 16.313-11.587 25.647-11.468 9.333.12 17.834 4.014 25.503 11.682l121.287 121.205c3.51 3.571 6.222 7.58 8.139 12.024A34.816 34.816 0 0 1 512 256.306c0 4.602-.958 9.126-2.875 13.57-1.917 4.445-4.63 8.369-8.139 11.771L379.76 402.874c-7.287 7.287-15.868 10.884-25.743 10.792-9.876-.091-18.457-3.78-25.744-11.068-7.525-7.287-11.183-15.963-10.972-26.028.212-10.065 3.96-18.67 11.248-25.816l95.125-95.125Z"/></svg>